<svg width="24" height="25" viewBox="0 0 24 25" fill="none" xmlns="http://www.w3.org/2000/svg">
<path fill-rule="evenodd" clip-rule="evenodd" d="M15.375 8.37439C15.375 7.75307 14.8713 7.24939 14.25 7.24939C13.6287 7.24939 13.125 7.75307 13.125 8.37439C13.125 8.99571 13.6287 9.49939 14.25 9.49939C14.8713 9.49939 15.375 8.99571 15.375 8.37439ZM16.7663 9.12444L20.25 9.12439C20.6642 9.12438 21 8.78859 21 8.37438C21 7.96017 20.6642 7.62438 20.25 7.62439L16.7663 7.62444C16.4436 6.5401 15.4391 5.74939 14.25 5.74939C13.0608 5.74939 12.0564 6.54011 11.7337 7.62444L3.75 7.62439C3.33579 7.62439 3 7.96017 3 8.37438C3 8.7886 3.33578 9.12439 3.75 9.12439L11.7337 9.12444C12.0564 10.2087 13.0609 10.9994 14.25 10.9994C15.4391 10.9994 16.4436 10.2087 16.7663 9.12444ZM8.25 15.4994C8.87132 15.4994 9.375 16.0031 9.375 16.6244C9.375 17.2457 8.87132 17.7494 8.25 17.7494C7.62868 17.7494 7.125 17.2457 7.125 16.6244C7.125 16.0031 7.62868 15.4994 8.25 15.4994ZM20.25 15.8744L10.7663 15.8744C10.4436 14.7901 9.43913 13.9994 8.25 13.9994C7.06087 13.9994 6.05641 14.7901 5.7337 15.8744L3.75 15.8744C3.33578 15.8744 3 16.2102 3 16.6244C3 17.0386 3.33579 17.3744 3.75 17.3744L5.73371 17.3744C6.05641 18.4587 7.06087 19.2494 8.25 19.2494C9.43913 19.2494 10.4436 18.4587 10.7663 17.3744L20.25 17.3744C20.6642 17.3744 21 17.0386 21 16.6244C21 16.2102 20.6642 15.8744 20.25 15.8744Z" fill="#141414"/>
</svg>
